<svg xmlns="http://www.w3.org/2000/svg" width="48" height="48" viewBox="0 0 48 48">
  <g id="folder-24px" transform="translate(0 0.034)">
    <path id="Tracé_824" data-name="Tracé 824" d="M0,0H48V48H0Z" transform="translate(0 -0.034)" fill="#fff"/>
    <g id="Icon" transform="translate(1.969 8.848)">
      <rect id="Rectangle_364" data-name="Rectangle 364" width="14" height="5" rx="2.5" transform="translate(-1.969 22.118)" fill="#185490"/>
      <rect id="Rectangle_522" data-name="Rectangle 522" width="14" height="5" rx="2.5" transform="translate(-1.969 28.118)" fill="#185490"/>
      <rect id="Rectangle_523" data-name="Rectangle 523" width="14" height="5" rx="2.5" transform="translate(-1.969 34.118)" fill="#185490"/>
      <rect id="Rectangle_524" data-name="Rectangle 524" width="14" height="5" rx="2.5" transform="translate(-1.969 16.118)" fill="#185490"/>
      <rect id="Rectangle_525" data-name="Rectangle 525" width="14" height="5" rx="2.5" transform="translate(-1.969 10.118)" fill="#185490"/>
      <rect id="Rectangle_533" data-name="Rectangle 533" width="14" height="5" rx="2.5" transform="translate(-1.969 4.118)" fill="#185490"/>
      <rect id="Rectangle_526" data-name="Rectangle 526" width="14" height="5" rx="2.5" transform="translate(15.031 22.118)" fill="#185490"/>
      <rect id="Rectangle_534" data-name="Rectangle 534" width="14" height="5" rx="2.5" transform="translate(15.031 16.118)" fill="#185490"/>
      <rect id="Rectangle_527" data-name="Rectangle 527" width="14" height="5" rx="2.5" transform="translate(15.031 28.118)" fill="#185490"/>
      <rect id="Rectangle_528" data-name="Rectangle 528" width="14" height="5" rx="2.5" transform="translate(15.031 34.118)" fill="#185490"/>
      <rect id="Rectangle_532" data-name="Rectangle 532" width="14" height="5" rx="2.5" transform="translate(32.031 34.118)" fill="#185490"/>
      <rect id="Rectangle_535" data-name="Rectangle 535" width="14" height="5" rx="2.5" transform="translate(32.031 28.118)" fill="#185490"/>
    </g>
  </g>
</svg>
