<svg id="Groupe_798" data-name="Groupe 798" xmlns="http://www.w3.org/2000/svg" width="37.887" height="40.321" viewBox="0 0 37.887 40.321">
  <path id="Tracé_819" data-name="Tracé 819" d="M39.113,38.922,5.207,5.015A1.991,1.991,0,0,0,2.392,7.831l5.831,5.831c0,.12-.04.22-.04.319V35.946a4.005,4.005,0,0,0,3.994,3.994,2,2,0,0,0,3.994,0H28.151a2,2,0,0,0,3.994,0A3.891,3.891,0,0,0,34,39.461l2.276,2.276a2,2,0,0,0,2.836-2.816ZM15.671,33.949a1.509,1.509,0,0,1-1.5-1.5V19.632l3,3v9.824A1.509,1.509,0,0,1,15.671,33.949Zm6.49,0a1.509,1.509,0,0,1-1.5-1.5v-6.33l3,3v3.335A1.509,1.509,0,0,1,22.16,33.949Zm0-17.972a1.509,1.509,0,0,1,1.5,1.5v.339l3.494,3.494V17.475a1.5,1.5,0,0,1,3,0V24.3L36.138,30.3V13.981a4.005,4.005,0,0,0-3.994-3.994H28.151V4a2,2,0,0,0-2-2H18.167a2,2,0,0,0-2,2V9.987H15.83l6.05,6.05A1.4,1.4,0,0,1,22.16,15.978ZM19.165,5h5.991V9.987H19.165Z" transform="translate(-1.807 -2)" fill="#185490"/>
</svg>
