<svg xmlns="http://www.w3.org/2000/svg" width="36" height="40" viewBox="0 0 36 40">
  <path id="unlock-padlock" d="M59,0a8.888,8.888,0,0,0-9,8.75V17.5H34.571A2.537,2.537,0,0,0,32,20V37.5A2.537,2.537,0,0,0,34.571,40H57.714a2.537,2.537,0,0,0,2.571-2.5V20a2.537,2.537,0,0,0-2.571-2.5H55.143V8.75a3.859,3.859,0,0,1,7.714,0V15A2.572,2.572,0,0,0,68,15V8.75A8.888,8.888,0,0,0,59,0ZM47.429,31.021V33.75a1.286,1.286,0,0,1-2.571,0V31.02A3.748,3.748,0,0,1,42.286,27.5,3.859,3.859,0,0,1,50,27.5,3.749,3.749,0,0,1,47.429,31.021Z" transform="translate(-32)" fill="#185490"/>
</svg>
