<svg xmlns="http://www.w3.org/2000/svg" width="38.004" height="36.005" viewBox="0 0 38.004 36.005">
  <g id="Icon" transform="translate(1)">
    <path id="Tracé_547" data-name="Tracé 547" d="M39,11.561V7a4.012,4.012,0,0,0-4-4H7A4,4,0,0,0,3,7V35a4,4,0,0,0,4,4H35a4.012,4.012,0,0,0,4-4V30.444A4,4,0,0,0,41,27V15a4,4,0,0,0-2-3.44ZM37,15V27H23V15ZM7,35V7H35v4H23a4.012,4.012,0,0,0-4,4V27a4.012,4.012,0,0,0,4,4H35v4Z" transform="translate(-4 -3)" fill="#185490"/>
    <circle id="Ellipse_92" data-name="Ellipse 92" cx="2.999" cy="2.999" r="2.999" transform="translate(22.005 15.004)" fill="#185490"/>
  </g>
</svg>
