<svg xmlns="http://www.w3.org/2000/svg" width="32" height="31" viewBox="0 0 32 31">
  <g id="Groupe_797" data-name="Groupe 797" transform="translate(0.054 -7.283)">
    <path id="Tracé_811" data-name="Tracé 811" d="M6,7H34a2.006,2.006,0,0,1,2,2h0a2.006,2.006,0,0,1-2,2H6A2.006,2.006,0,0,1,4,9H4A2.006,2.006,0,0,1,6,7Z" transform="translate(-4.054 0.283)" fill="#185490"/>
    <path id="Tracé_812" data-name="Tracé 812" d="M6,15H34a2.006,2.006,0,0,0,2-2h0a2.006,2.006,0,0,0-2-2H6a2.006,2.006,0,0,0-2,2H4A2.006,2.006,0,0,0,6,15Z" transform="translate(-4.054 5.283)" fill="#185490"/>
    <path id="Tracé_813" data-name="Tracé 813" d="M6,19H16a2.006,2.006,0,0,0,2-2h0a2.006,2.006,0,0,0-2-2H6a2.006,2.006,0,0,0-2,2H4A2.006,2.006,0,0,0,6,19Z" transform="translate(-4.054 10.283)" fill="#185490"/>
    <path id="Tracé_814" data-name="Tracé 814" d="M6,23H16a2.006,2.006,0,0,0,2-2h0a2.006,2.006,0,0,0-2-2H6a2.006,2.006,0,0,0-2,2H4A2.006,2.006,0,0,0,6,23Z" transform="translate(-4.054 15.282)" fill="#185490"/>
    <path id="Tracé_815" data-name="Tracé 815" d="M17.76,20.747l-1.4-1.375a1.993,1.993,0,0,0-2.784,0h0a1.9,1.9,0,0,0,0,2.73l2.8,2.749a1.993,1.993,0,0,0,2.784,0l6.258-6.137a1.9,1.9,0,0,0,0-2.73h0a1.993,1.993,0,0,0-2.784,0Z" transform="translate(4.949 12.865)" fill="#185490"/>
  </g>
</svg>
