<svg xmlns="http://www.w3.org/2000/svg" width="30" height="30" viewBox="0 0 30 30">
  <g id="Instagram" transform="translate(-25.95 -24.71)">
    <rect id="Bg" width="30" height="30" rx="4" transform="translate(55.95 24.71) rotate(90)" fill="#1d2b47"/>
    <path id="Tracé_14" data-name="Tracé 14" d="M128.029,33.146a4.272,4.272,0,0,0-1.294-2.734,4.455,4.455,0,0,0-2.935-1.191c-.93-.05-2.495-.091-4.339-.088a27.989,27.989,0,0,0-3.574.178,4.037,4.037,0,0,0-3.46,3.109c-.383,1.361-.306,7.638-.084,8.985a4.049,4.049,0,0,0,3.214,3.49,47.484,47.484,0,0,0,8.856.061,4.052,4.052,0,0,0,3.5-3.2C128.283,40.354,128.156,34.407,128.029,33.146Zm-1.473,8a2.709,2.709,0,0,1-2.546,2.417,47.651,47.651,0,0,1-8.251-.115,2.623,2.623,0,0,1-1.992-2.261,53.9,53.9,0,0,1,0-8.079A2.7,2.7,0,0,1,116.3,30.7a56.44,56.44,0,0,1,7.873.032,2.707,2.707,0,0,1,2.413,2.55A57.311,57.311,0,0,1,126.556,41.144Zm-6.4-8.119a4.1,4.1,0,1,0,4.1,4.11A4.1,4.1,0,0,0,120.159,33.025Zm-.029,6.761a2.655,2.655,0,1,1,2.684-2.645A2.655,2.655,0,0,1,120.13,39.786Zm5.25-6.914a.96.96,0,1,1-.951-.966A.954.954,0,0,1,125.38,32.872Z" transform="translate(-79.208 2.579)" fill="#fff"/>
  </g>
</svg>
