<svg xmlns="http://www.w3.org/2000/svg" width="135" height="40" viewBox="0 0 135 40">
  <g id="GooglePlay" transform="translate(-10 -10)">
    <g id="Groupe_776" data-name="Groupe 776">
      <g id="Groupe_774" data-name="Groupe 774">
        <g id="Groupe_773" data-name="Groupe 773">
          <path id="Tracé_752" data-name="Tracé 752" d="M140,10.8a4.2,4.2,0,0,1,4.2,4.2V45a4.2,4.2,0,0,1-4.2,4.2H15A4.2,4.2,0,0,1,10.8,45V15A4.2,4.2,0,0,1,15,10.8H140m0-.8H15a5.015,5.015,0,0,0-5,5V45a5.015,5.015,0,0,0,5,5H140a5.015,5.015,0,0,0,5-5V15a5.015,5.015,0,0,0-5-5Z" fill="#fff"/>
        </g>
      </g>
      <path id="Tracé_753" data-name="Tracé 753" d="M78.136,31.752A4.253,4.253,0,1,0,82.4,36.005,4.192,4.192,0,0,0,78.136,31.752Zm0,6.83a2.584,2.584,0,1,1,2.4-2.577A2.46,2.46,0,0,1,78.136,38.582Zm-9.313-6.83a4.253,4.253,0,1,0,4.269,4.253A4.192,4.192,0,0,0,68.823,31.752Zm0,6.83a2.584,2.584,0,1,1,2.4-2.577A2.46,2.46,0,0,1,68.823,38.582ZM57.744,33.057v1.8h4.317a3.765,3.765,0,0,1-.982,2.271,4.42,4.42,0,0,1-3.335,1.321,4.8,4.8,0,0,1,0-9.6A4.6,4.6,0,0,1,61,30.141l1.273-1.273a6.3,6.3,0,0,0-4.527-1.821,6.606,6.606,0,1,0,0,13.211A6.036,6.036,0,0,0,62.351,38.4a5.962,5.962,0,0,0,1.563-4.221,5.829,5.829,0,0,0-.1-1.127Zm45.308,1.4a3.953,3.953,0,0,0-3.641-2.706A4.041,4.041,0,0,0,95.4,36.005a4.162,4.162,0,0,0,4.221,4.253,4.23,4.23,0,0,0,3.544-1.885l-1.45-.967a2.43,2.43,0,0,1-2.094,1.176,2.165,2.165,0,0,1-2.063-1.288l5.687-2.353Zm-5.8,1.418A2.333,2.333,0,0,1,99.475,33.4a1.645,1.645,0,0,1,1.579.9ZM92.629,40H94.5V27.5H92.629Zm-3.062-7.3H89.5a2.948,2.948,0,0,0-2.239-.95,4.257,4.257,0,0,0,0,8.506,2.9,2.9,0,0,0,2.239-.967h.064V39.9c0,1.627-.869,2.5-2.271,2.5a2.354,2.354,0,0,1-2.143-1.515l-1.627.677a4.053,4.053,0,0,0,3.77,2.513c2.191,0,4.044-1.289,4.044-4.43V32.009H89.567Zm-2.142,5.88a2.587,2.587,0,0,1,0-5.155A2.4,2.4,0,0,1,89.7,36.021,2.376,2.376,0,0,1,87.425,38.582ZM111.806,27.5h-4.471V40H109.2V35.264h2.606a3.888,3.888,0,1,0,0-7.765Zm.048,6.025H109.2V29.239h2.654a2.143,2.143,0,1,1,0,4.285Zm11.532-1.795a3.505,3.505,0,0,0-3.33,1.913l1.657.692a1.768,1.768,0,0,1,1.705-.917,1.8,1.8,0,0,1,1.962,1.609v.128a4.127,4.127,0,0,0-1.946-.482c-1.785,0-3.6.981-3.6,2.814a2.889,2.889,0,0,0,3.1,2.751,2.633,2.633,0,0,0,2.381-1.223h.064v.965h1.8V35.186C127.181,32.967,125.525,31.729,123.386,31.729Zm-.225,6.851c-.612,0-1.464-.305-1.464-1.061,0-.965,1.061-1.335,1.978-1.335a3.329,3.329,0,0,1,1.7.418A2.262,2.262,0,0,1,123.161,38.58ZM133.743,32l-2.139,5.42h-.064L129.32,32h-2.01l3.329,7.575-1.9,4.214h1.946L135.818,32Zm-16.807,8H118.8V27.5h-1.866Z" fill="#fff"/>
      <g id="Groupe_775" data-name="Groupe 775">
        <g id="Tracé_754" data-name="Tracé 754" fill="#fff" stroke-miterlimit="10">
          <path d="M 20.51873207092285 42.17270660400391 C 20.32475280761719 41.90099334716797 20.22299957275391 41.51982498168945 20.22299957275391 41.05899810791016 L 20.22299957275391 18.9429988861084 C 20.22299957275391 18.48184776306152 20.32490158081055 18.1004638671875 20.5191478729248 17.82871246337891 L 32.64799880981445 29.95854377746582 L 32.64799880981445 30.00099945068359 L 32.64799880981445 30.0434398651123 L 20.51873207092285 42.17270660400391 Z" stroke="none"/>
          <path d="M 20.58287811279297 18.24602508544922 C 20.51096343994141 18.44195938110352 20.47299957275391 18.67864227294922 20.47299957275391 18.94300079345703 L 20.47299957275391 41.05899810791016 C 20.47299957275391 41.32304382324219 20.51087188720703 41.55947113037109 20.58262252807617 41.75527572631836 L 32.3369026184082 30.00099563598633 L 20.58287811279297 18.24602508544922 M 20.50899887084961 17.46500015258789 L 32.89799880981445 29.85499954223633 L 32.89799880981445 30.00099945068359 L 32.89799880981445 30.14699935913086 L 20.50899887084961 42.5359992980957 L 20.43499755859375 42.46399688720703 C 20.14500045776367 42.15599822998047 19.97299957275391 41.67900085449219 19.97299957275391 41.05899810791016 L 19.97299957275391 18.94300079345703 C 19.97299957275391 18.32400131225586 20.14500045776367 17.84600067138672 20.43499755859375 17.53799819946289 L 20.50899887084961 17.46500015258789 Z" stroke="none" fill="#1d2b47"/>
        </g>
        <g id="Tracé_755" data-name="Tracé 755" fill="#fff" stroke-miterlimit="10">
          <path d="M 37.06975936889648 33.96714401245117 L 33.14799880981445 30.04348373413086 L 33.14799880981445 30.00099945068359 L 33.14799880981445 29.95855903625488 L 37.07036972045898 26.03618812561035 L 41.89149856567383 28.77536964416504 C 42.48556900024414 29.11300849914551 42.81274795532227 29.54846954345703 42.81274795532227 30.00149917602539 C 42.81274795532227 30.45452880859375 42.48556900024414 30.88998985290527 41.8914680480957 31.2276496887207 L 37.06975936889648 33.96714401245117 Z" stroke="none"/>
          <path d="M 37.11190795898438 33.65566635131836 L 41.76794052124023 31.01030921936035 C 42.27304840087891 30.72321891784668 42.56274795532227 30.35551834106445 42.56274795532227 30.00149917602539 C 42.56274795532227 29.64748001098633 42.27304840087891 29.2797794342041 41.76799774169922 28.99272918701172 L 37.11247253417969 26.34762573242188 L 33.45905303955078 30.00104522705078 L 37.11190795898438 33.65566635131836 M 37.02799987792969 34.27899932861328 L 32.89799880981445 30.14699935913086 L 32.89799880981445 30.00099945068359 L 32.89799880981445 29.85499954223633 L 37.02899932861328 25.7239990234375 L 37.12199783325195 25.77799987792969 L 42.01499938964844 28.55799865722656 C 43.4119987487793 29.35199928283691 43.4119987487793 30.65099906921387 42.01499938964844 31.44499969482422 L 37.12199783325195 34.22499847412109 L 37.02799987792969 34.27899932861328 Z" stroke="none" fill="#1d2b47"/>
        </g>
        <path id="Tracé_756" data-name="Tracé 756" d="M37.122,34.225,32.9,30,20.435,42.464a1.627,1.627,0,0,0,2.079.061l14.608-8.3" fill="#fff" stroke="#1d2b47" stroke-miterlimit="10" stroke-width="0.5"/>
        <g id="Tracé_757" data-name="Tracé 757" fill="#fff" stroke-miterlimit="10">
          <path d="M 32.89799880981445 29.64743804931641 L 20.80379867553711 17.55323791503906 C 20.97097587585449 17.44508171081543 21.16804695129395 17.39046859741211 21.39239883422852 17.39046859741211 C 21.69550895690918 17.39046859741211 22.04063987731934 17.49554824829102 22.39048004150391 17.69435882568359 L 36.71318817138672 25.83225059509277 L 32.89799880981445 29.64743804931641 Z" stroke="none"/>
          <path d="M 32.89799880981445 29.29389953613281 L 36.30438232421875 25.88751411437988 L 22.26696968078613 17.91170883178711 C 21.9547004699707 17.7342586517334 21.65227890014648 17.64046859741211 21.39239883422852 17.64046859741211 C 21.34456062316895 17.64046859741211 21.29841041564941 17.64360618591309 21.25396728515625 17.64986610412598 L 32.89799880981445 29.29389953613281 M 32.89799880981445 30.00099945068359 L 20.43499946594238 17.53799819946289 C 20.67976570129395 17.27889823913574 21.00902366638184 17.14046859741211 21.39239692687988 17.14046859741211 C 21.73108291625977 17.14046859741211 22.11201858520508 17.24856948852539 22.51399993896484 17.47699928283691 L 37.12199783325195 25.77699851989746 L 32.89799880981445 30.00099945068359 Z" stroke="none" fill="#1d2b47"/>
        </g>
      </g>
    </g>
    <g id="Groupe_777" data-name="Groupe 777">
      <path id="Tracé_758" data-name="Tracé 758" d="M51.278,23V17h1.835a2.982,2.982,0,0,1,2.213.834A2.937,2.937,0,0,1,56.155,20a2.939,2.939,0,0,1-.829,2.166A2.982,2.982,0,0,1,53.113,23Zm.771-.737h1.064a2.266,2.266,0,1,0,0-4.526H52.049Z" fill="#fff" stroke="#fff" stroke-miterlimit="10" stroke-width="0.2"/>
      <path id="Tracé_759" data-name="Tracé 759" d="M57.237,23V17h.771v6Z" fill="#fff" stroke="#fff" stroke-miterlimit="10" stroke-width="0.2"/>
      <path id="Tracé_760" data-name="Tracé 760" d="M61.074,23.134a2.236,2.236,0,0,1-1.277-.427,1.97,1.97,0,0,1-.817-1.2l.7-.284a1.611,1.611,0,0,0,.514.833,1.3,1.3,0,0,0,.876.339,1.406,1.406,0,0,0,.86-.263.846.846,0,0,0,.355-.717.919.919,0,0,0-.355-.775,3.7,3.7,0,0,0-1.127-.507,2.994,2.994,0,0,1-1.207-.65,1.354,1.354,0,0,1-.411-1.018,1.486,1.486,0,0,1,.511-1.122,1.871,1.871,0,0,1,1.332-.478,1.931,1.931,0,0,1,1.241.381,1.77,1.77,0,0,1,.62.834l-.7.293a1.044,1.044,0,0,0-.374-.528,1.311,1.311,0,0,0-1.525,0,.753.753,0,0,0-.314.615.7.7,0,0,0,.289.566,2.785,2.785,0,0,0,.85.415,7.1,7.1,0,0,1,.742.277,3.356,3.356,0,0,1,.6.356,1.414,1.414,0,0,1,.461.553,1.794,1.794,0,0,1,.155.766,1.655,1.655,0,0,1-.179.78,1.486,1.486,0,0,1-.479.545,2.41,2.41,0,0,1-1.345.41Z" fill="#fff" stroke="#fff" stroke-miterlimit="10" stroke-width="0.2"/>
      <path id="Tracé_761" data-name="Tracé 761" d="M64.954,23h-.77V17h2.045a1.9,1.9,0,0,1,1.319.507,1.745,1.745,0,0,1,0,2.556,1.9,1.9,0,0,1-1.319.507H64.954Zm0-3.168h1.291a.994.994,0,0,0,.779-.326,1.032,1.032,0,0,0,0-1.441.992.992,0,0,0-.779-.328H64.954Z" fill="#fff" stroke="#fff" stroke-miterlimit="10" stroke-width="0.2"/>
      <path id="Tracé_762" data-name="Tracé 762" d="M73.983,22.225a3.116,3.116,0,0,1-4.4,0,3.242,3.242,0,0,1,0-4.45,3.107,3.107,0,0,1,4.4,0,3.233,3.233,0,0,1,0,4.446Zm-3.83-.5a2.308,2.308,0,0,0,3.26,0,2.556,2.556,0,0,0,0-3.444,2.308,2.308,0,0,0-3.26,0,2.559,2.559,0,0,0,0,3.444Z" fill="#fff" stroke="#fff" stroke-miterlimit="10" stroke-width="0.2"/>
      <path id="Tracé_763" data-name="Tracé 763" d="M75.949,23V17h.939L79.8,21.667h.033L79.8,20.511V17h.771v6h-.8L76.72,18.106h-.034l.034,1.157V23Z" fill="#fff" stroke="#fff" stroke-miterlimit="10" stroke-width="0.2"/>
      <path id="Tracé_764" data-name="Tracé 764" d="M81.949,23V17h.771v6Z" fill="#fff" stroke="#fff" stroke-miterlimit="10" stroke-width="0.2"/>
      <path id="Tracé_765" data-name="Tracé 765" d="M84.094,23V17h2.17a1.759,1.759,0,0,1,1.219.465A1.507,1.507,0,0,1,88,18.634a1.3,1.3,0,0,1-.223.754,1.389,1.389,0,0,1-.591.495v.033a1.529,1.529,0,0,1,.73.519,1.37,1.37,0,0,1,.285.856,1.574,1.574,0,0,1-.541,1.223A1.847,1.847,0,0,1,86.381,23Zm.77-3.428h1.4a.9.9,0,0,0,.7-.289.893.893,0,0,0,.008-1.26.862.862,0,0,0-.674-.286H84.864Zm0,2.691h1.551a.922.922,0,0,0,.721-.311,1,1,0,0,0,.276-.679,1.01,1.01,0,0,0-1.031-.98H84.864Z" fill="#fff" stroke="#fff" stroke-miterlimit="10" stroke-width="0.2"/>
      <path id="Tracé_766" data-name="Tracé 766" d="M89.239,23V17h.771v5.263h2.6V23Z" fill="#fff" stroke="#fff" stroke-miterlimit="10" stroke-width="0.2"/>
      <path id="Tracé_767" data-name="Tracé 767" d="M97.083,17.737H94.351v1.9h2.464v.72H94.351v1.9h2.732V23h-3.5V17h3.5Z" fill="#fff" stroke="#fff" stroke-miterlimit="10" stroke-width="0.2"/>
      <path id="Tracé_768" data-name="Tracé 768" d="M101.742,23.134a2.236,2.236,0,0,1-1.277-.427,1.975,1.975,0,0,1-.818-1.2l.7-.284a1.6,1.6,0,0,0,.514.833,1.3,1.3,0,0,0,.876.339,1.406,1.406,0,0,0,.86-.263.846.846,0,0,0,.355-.717.919.919,0,0,0-.355-.775,3.7,3.7,0,0,0-1.127-.507,2.994,2.994,0,0,1-1.207-.65,1.355,1.355,0,0,1-.412-1.018,1.487,1.487,0,0,1,.512-1.122,1.871,1.871,0,0,1,1.332-.478,1.926,1.926,0,0,1,1.24.381,1.757,1.757,0,0,1,.62.834l-.7.293a1.035,1.035,0,0,0-.373-.528,1.311,1.311,0,0,0-1.525,0,.754.754,0,0,0-.315.615.7.7,0,0,0,.29.566,2.785,2.785,0,0,0,.85.415,7.1,7.1,0,0,1,.742.277,3.356,3.356,0,0,1,.6.356,1.414,1.414,0,0,1,.461.553,1.794,1.794,0,0,1,.155.766,1.655,1.655,0,0,1-.18.78,1.474,1.474,0,0,1-.478.545,2.41,2.41,0,0,1-1.345.41Z" fill="#fff" stroke="#fff" stroke-miterlimit="10" stroke-width="0.2"/>
      <path id="Tracé_769" data-name="Tracé 769" d="M106.937,23.134a2.1,2.1,0,0,1-1.6-.654,2.391,2.391,0,0,1-.615-1.709V17h.77v3.805a1.721,1.721,0,0,0,.373,1.152,1.541,1.541,0,0,0,2.154,0,1.721,1.721,0,0,0,.373-1.152V17h.771v3.771a2.427,2.427,0,0,1-.6,1.713A2.1,2.1,0,0,1,106.937,23.134Z" fill="#fff" stroke="#fff" stroke-miterlimit="10" stroke-width="0.2"/>
      <path id="Tracé_770" data-name="Tracé 770" d="M110.4,23V17h2.045a1.9,1.9,0,0,1,1.32.507,1.726,1.726,0,0,1,.146,2.388,1.774,1.774,0,0,1-1.022.608l-.017.025,1.685,2.439V23h-.913l-1.618-2.43h-.855V23Zm.771-3.151h1.24a1.135,1.135,0,0,0,.792-.3.984.984,0,0,0,.331-.762,1.051,1.051,0,0,0-.293-.72.992.992,0,0,0-.779-.328h-1.291Z" fill="#fff" stroke="#fff" stroke-miterlimit="10" stroke-width="0.2"/>
    </g>
  </g>
</svg>
