<svg xmlns="http://www.w3.org/2000/svg" width="88.233" height="50" viewBox="0 0 88.233 50"><defs><style>.a{fill:#fff;}</style></defs><path class="a" d="M82.184,73.272a6.248,6.248,0,0,0,1.046-3.584,6.6,6.6,0,0,0-2.606-5.657Q78.018,62.1,72.976,62.1H63.27V89.788H74.041q4.721-.036,7.269-2.09a7.315,7.315,0,0,0,2.55-6.048,6.346,6.346,0,0,0-1.229-3.956,5.844,5.844,0,0,0-3.357-2.148A6.061,6.061,0,0,0,82.184,73.272Zm-13.2-6.55h4a5.766,5.766,0,0,1,3.453.825,3.178,3.178,0,0,1,1.094,2.71q0,3.367-4.32,3.442H68.979Zm8.039,17.525a4.7,4.7,0,0,1-3.139.965h-4.9V77.73h5.233q3.939.058,3.939,3.862A3.3,3.3,0,0,1,77.018,84.247Z" transform="translate(-52.176 -51.209)"/><path class="a" d="M170.107,92.832l-.152-2.454H164.76v20.587h5.5V97.485q.966-2.113,4.091-2.113a14.948,14.948,0,0,1,1.978.152l.082-5.284A5.8,5.8,0,0,0,174.7,90,5.1,5.1,0,0,0,170.107,92.832Z" transform="translate(-129.17 -72.38)"/><path class="a" d="M228.783,58.569a3.565,3.565,0,0,0-4.5,0,2.9,2.9,0,0,0,.027,4.086,3.528,3.528,0,0,0,4.472,0,2.9,2.9,0,0,0,0-4.086Z" transform="translate(-173.693 -47.928)"/><rect class="a" width="5.518" height="20.59" transform="translate(50.086 17.999)"/><path class="a" d="M0,0V50H73.859l-3.476-5.384h-65V5.384H82.85V44.616h0L71.126,26.582,78.562,18h-6.6l-5.27,6.183-1.065,1.369V9.367h-5.5V38.583h5.5V32.307l1.98-1.977L80.4,49.986H82.83V50h5.4V0Z"/></svg>