<svg id="MC_Icon_Account" xmlns="http://www.w3.org/2000/svg" xmlns:xlink="http://www.w3.org/1999/xlink" width="20.001"
  height="20" viewBox="0 0 20.001 20">
  <defs>
    <clipPath id="clip-path">
      <rect id="Rectangle_454" width="1" height="8" fill="white" />
    </clipPath>
  </defs>
  <g id="Icon">
    <path id="Tracé_606"
      d="M13.345,1.207c-.076-.032-.158-.048-.235-.076A5.134,5.134,0,0,0,12.4.922c-.153-.031-.313-.036-.471-.053s-.31-.051-.471-.053c-.024,0-.047.006-.071.006s-.062-.009-.094-.008a5.15,5.15,0,0,0-.625.07c-.1.014-.2.014-.3.033a5.182,5.182,0,0,0-.9.265c-.016.007-.034.01-.05.016A5.186,5.186,0,0,0,6.172,5.935a5.059,5.059,0,0,0,2.664,4.426h5.081A5.06,5.06,0,0,0,16.58,5.937,5.187,5.187,0,0,0,13.345,1.207ZM11.376,9.026a3.095,3.095,0,0,1,0-6.188,3.095,3.095,0,0,1,0,6.188Z"
      transform="translate(-1.375 -0.814)" fill="white" />
    <path id="Tracé_610"
      d="M8.835,10.361c-.021.006-.041.015-.062.021a9.657,9.657,0,0,0-1.117.365c-.041.016-.082.031-.123.048a9.844,9.844,0,0,0-6.158,9.043,1.019,1.019,0,1,0,2.038,0,7.875,7.875,0,0,1,3.956-6.747c.012-.007.026-.006.038-.013a8.058,8.058,0,0,1,7.937,0c.012.007.026.006.038.013a7.875,7.875,0,0,1,3.956,6.747,1.019,1.019,0,1,0,2.038,0A9.845,9.845,0,0,0,15.232,10.8c-.055-.023-.11-.043-.166-.065a9.743,9.743,0,0,0-1.029-.336c-.041-.011-.08-.029-.122-.04Z"
      transform="translate(-1.375 -0.857)" fill="white" />
  </g>
</svg>