<svg xmlns="http://www.w3.org/2000/svg" width="30"  height="32" viewBox="0 0 30 32">
  <g transform="translate(-2.526 -1.845)">
    <g transform="translate(2.526 6.384)">
      <path
        d="M32.481,19.181l-.013-.163a.716.716,0,0,0-.386-.581.779.779,0,0,0-.716,0,4.381,4.381,0,0,1-5.784-1.791,3.161,3.161,0,0,1,.218-3.469.7.7,0,0,0,.019-.862.764.764,0,0,0-.858-.258,6.632,6.632,0,0,1-2.117.409,2.747,2.747,0,0,1-2.005-.732,3.884,3.884,0,0,1-.963-2.874.721.721,0,0,0-.57-.717.771.771,0,0,0-.179-.021.757.757,0,0,0-.671.4,3.172,3.172,0,0,1-3,1.708,3.192,3.192,0,0,1-3.328-2.647.729.729,0,0,0-.4-.5A.774.774,0,0,0,11.4,7a.786.786,0,0,0-.324.07A14.442,14.442,0,0,0,2.526,20.061c0,7.943,6.729,14.4,15,14.4s15-6.462,15-14.4C32.526,19.765,32.5,19.468,32.481,19.181ZM31,20.911A13.315,13.315,0,0,1,17.526,33.029a13.259,13.259,0,0,1-13.5-12.968A12.97,12.97,0,0,1,10.314,9.117l.57-.347.323.569a4.71,4.71,0,0,0,4.251,2.328,5.149,5.149,0,0,0,2.493-.6l.619-.337.275.631a4.375,4.375,0,0,0,.924,1.373A4.264,4.264,0,0,0,22.836,13.9c.071,0,.141,0,.212,0l.71-.016-.062.679a4.955,4.955,0,0,0,.541,2.716A5.715,5.715,0,0,0,29.4,20.333a6.259,6.259,0,0,0,.877-.061l.773-.109Z"
        transform="translate(-2.526 -7.004)" fill="#185490" />
    </g>
    <g transform="translate(7.014 18.142)">
      <ellipse cx="0.955" cy="0.955" rx="0.955" ry="0.955" fill="#185490" />
    </g>
    <g transform="translate(17.524 26.881)">
      <ellipse cx="0.955" cy="0.955" rx="0.955" ry="0.955" fill="#185490" />
    </g>
    <g transform="translate(9.967 23.133)">
      <ellipse cx="0.955" cy="0.955" rx="0.955" ry="0.955" fill="#185490" />
    </g>
    <g transform="translate(29.967 12.152)">
      <ellipse cx="0.955" cy="0.955" rx="0.955" ry="0.955" fill="#185490" />
    </g>
    <g transform="translate(23.214 22.337)">
      <ellipse cx="1.564" cy="1.564" rx="1.564" ry="1.564" fill="#185490" />
    </g>
    <g transform="translate(7.997 11.827)">
      <ellipse cx="1.564" cy="1.564" rx="1.564" ry="1.564" fill="#185490" />
    </g>
    <g transform="translate(18.997 1.845)">
      <ellipse cx="1.564" cy="1.564" rx="1.564" ry="1.564" fill="#185490" />
    </g>
    <g transform="translate(14.097 15.125)">
      <ellipse cx="1.184" cy="1.184" rx="1.184" ry="1.184" fill="#185490" />
    </g>
    <g transform="translate(26.097 5.148)">
      <ellipse cx="1.184" cy="1.184" rx="1.184" ry="1.184" fill="#185490" />
    </g>
    <g transform="translate(16.879 21.026)">
      <ellipse cx="1.184" cy="1.184" rx="1.184" ry="1.184" fill="#185490" />
    </g>
  </g>
</svg>