<svg width="183" height="118" viewBox="0 0 183 118" fill="none"
  xmlns="http://www.w3.org/2000/svg">
  <path d="M95.5 117C124.495 117 148 93.4949 148 64.5C148 35.5051 124.495 12 95.5 12C66.5051 12 43 35.5051 43 64.5C43 93.4949 66.5051 117 95.5 117Z" fill="#F5F5F5"/>
  <g opacity="0.6">
    <g opacity="0.6">
      <path opacity="0.6" d="M158.095 24C160.697 24 162.807 21.8904 162.807 19.288C162.807 16.6857 160.697 14.576 158.095 14.576C155.492 14.576 153.383 16.6857 153.383 19.288C153.383 21.8904 155.492 24 158.095 24Z" fill="white"/>
      <path opacity="0.6" d="M158.095 23C160.145 23 161.807 21.3381 161.807 19.288C161.807 17.238 160.145 15.576 158.095 15.576C156.045 15.576 154.383 17.238 154.383 19.288C154.383 21.3381 156.045 23 158.095 23Z" stroke="#B2DD62" stroke-width="2"/>
    </g>
  </g>
  <path d="M166.999 99L173.806 105.808" stroke="#A0E4EA" stroke-width="2" stroke-linecap="round" stroke-linejoin="round"/>
  <path d="M173.806 99L166.999 105.808" stroke="#A0E4EA" stroke-width="2" stroke-linecap="round" stroke-linejoin="round"/>
  <path d="M181.622 43.811C181.622 44.367 181.457 44.9104 181.148 45.3727C180.839 45.835 180.4 46.1953 179.887 46.408C179.373 46.6208 178.808 46.6764 178.263 46.568C177.717 46.4595 177.216 46.1918 176.823 45.7987C176.43 45.4056 176.162 44.9047 176.054 44.3594C175.946 43.8141 176.001 43.2489 176.214 42.7353C176.427 42.2216 176.787 41.7826 177.249 41.4737C177.712 41.1649 178.255 41 178.811 41C179.18 41 179.546 41.0727 179.887 41.214C180.228 41.3552 180.538 41.5623 180.799 41.8233C181.06 42.0843 181.267 42.3942 181.408 42.7353C181.549 43.0763 181.622 43.4418 181.622 43.811V43.811Z" stroke="#EABAA0" stroke-width="2" stroke-linecap="round" stroke-linejoin="round"/>
  <path d="M32.2246 35.001V41.338" stroke="#B4A0EA" stroke-width="2" stroke-linecap="round" stroke-linejoin="round"/>
  <path d="M35.3927 38.1689H29.0557" stroke="#B4A0EA" stroke-width="2" stroke-linecap="round" stroke-linejoin="round"/>
  <path d="M20 116.897L23.061 116.635C23.7179 116.579 24.3323 116.287 24.7908 115.814C25.2494 115.34 25.5212 114.716 25.556 114.058L25.663 112.048C25.6979 111.389 25.9703 110.764 26.4299 110.291C26.8895 109.817 27.5051 109.525 28.163 109.47L30.163 109.299C30.8207 109.244 31.4362 108.953 31.8958 108.479C32.3553 108.005 32.6278 107.381 32.663 106.722L32.77 104.708C32.8049 104.05 33.0766 103.427 33.535 102.953C33.9933 102.479 34.6074 102.188 35.264 102.131L37.278 101.957C37.9343 101.9 38.5482 101.608 39.0065 101.135C39.4647 100.662 39.7366 100.039 39.772 99.381L39.899 96.999" stroke="#A0EAA0" stroke-width="2" stroke-miterlimit="10" stroke-linecap="round"/>
  <path d="M9.91688 58.9344L10.958 50.672L2.69564 49.6309L1.65451 57.8932L9.91688 58.9344Z" stroke="#A0E4EA" stroke-width="1.99969" stroke-miterlimit="10"/>
  <path d="M157.705 76.6778L162.773 75.031L161.126 69.9628L156.058 71.6096L157.705 76.6778Z" stroke="#A0BAEA" stroke-width="2" stroke-miterlimit="10"/>
  <path d="M67.1758 7.42004C66.9 7.42004 66.6354 7.52962 66.4404 7.72466C66.2453 7.91969 66.1357 8.18421 66.1357 8.46004V10.874C66.1357 11.1499 66.2453 11.4144 66.4404 11.6094C66.6354 11.8045 66.9 11.914 67.1758 11.914C67.4516 11.914 67.7161 11.8045 67.9111 11.6094C68.1062 11.4144 68.2158 11.1499 68.2158 10.874V8.46004C68.2158 8.18421 68.1062 7.91969 67.9111 7.72466C67.7161 7.52962 67.4516 7.42004 67.1758 7.42004Z" fill="#A0EAC2"/>
  <path d="M64.453 5H62.04C61.7642 5 61.4997 5.10956 61.3046 5.3046C61.1096 5.49963 61 5.76417 61 6.03999C61 6.31582 61.1096 6.58035 61.3046 6.77539C61.4997 6.97043 61.7642 7.08 62.04 7.08H64.453C64.7288 7.08 64.9934 6.97043 65.1884 6.77539C65.3835 6.58035 65.493 6.31582 65.493 6.03999C65.493 5.76417 65.3835 5.49963 65.1884 5.3046C64.9934 5.10956 64.7288 5 64.453 5Z" fill="#A0EAC2"/>
  <path d="M67.1758 -0.000976562C67.0391 -0.000976626 66.9038 0.0259654 66.7775 0.0782928C66.6513 0.13062 66.5366 0.207307 66.44 0.303986C66.3434 0.400664 66.2669 0.51543 66.2147 0.641724C66.1625 0.768018 66.1356 0.903365 66.1357 1.04002V3.45203C66.1357 3.72785 66.2453 3.99239 66.4404 4.18742C66.6354 4.38246 66.9 4.49202 67.1758 4.49202C67.4516 4.49202 67.7161 4.38246 67.9111 4.18742C68.1062 3.99239 68.2158 3.72785 68.2158 3.45203V1.04002C68.2158 0.764107 68.1062 0.499472 67.9112 0.304276C67.7162 0.109079 67.4517 -0.000711512 67.1758 -0.000976562Z" fill="#A0EAC2"/>
  <path d="M72.3119 4.83204H69.8989C69.6285 4.84043 69.372 4.95371 69.1837 5.14793C68.9954 5.34215 68.8901 5.60204 68.8901 5.87254C68.8901 6.14304 68.9954 6.40292 69.1837 6.59713C69.372 6.79135 69.6285 6.90465 69.8989 6.91304H72.3119C72.4512 6.91736 72.59 6.89363 72.72 6.84329C72.85 6.79294 72.9686 6.71701 73.0687 6.61996C73.1688 6.52292 73.2484 6.40674 73.3028 6.27835C73.3571 6.14996 73.3851 6.01196 73.3851 5.87254C73.3851 5.73312 73.3571 5.59511 73.3028 5.46672C73.2484 5.33833 73.1688 5.22216 73.0687 5.12512C72.9686 5.02807 72.85 4.95212 72.72 4.90178C72.59 4.85143 72.4512 4.82772 72.3119 4.83204Z" fill="#A0EAC2"/>
  <path d="M121.324 45.0011H68.874C67.8579 44.9965 66.8811 45.393 66.1557 46.1045C65.4303 46.8161 65.015 47.7851 65 48.8011V79.7401C65.0146 80.7346 65.415 81.6845 66.1167 82.3894C66.8184 83.0943 67.7666 83.499 68.761 83.5181H121.313C121.818 83.5279 122.32 83.4369 122.79 83.2503C123.26 83.0638 123.687 82.7854 124.048 82.4316C124.409 82.0777 124.695 81.6555 124.891 81.1896C125.086 80.7236 125.187 80.2234 125.187 79.7181V48.7801C125.184 48.2776 125.081 47.7809 124.884 47.3184C124.688 46.856 124.402 46.437 124.043 46.0857C123.684 45.7343 123.259 45.4576 122.792 45.2714C122.325 45.0853 121.826 44.9934 121.324 45.0011ZM117.505 48.9921L95.094 65.9921L72.679 48.9921H117.505ZM69.023 79.5201V51.4201L86.262 64.4721L77.077 70.6201L76.544 71.8891V72.0891C76.5573 72.6465 76.7876 73.1769 77.186 73.5671C77.3835 73.7613 77.6181 73.9137 77.8758 74.0152C78.1336 74.1168 78.4091 74.1653 78.686 74.1581L80.021 73.6581L89.721 67.0951L93.321 69.8101C93.7987 70.2352 94.414 70.4734 95.0535 70.4807C95.693 70.4881 96.3136 70.2641 96.801 69.8501L100.449 67.0951L110.32 73.7491L111.17 74.09L111.484 74.1521C112.038 74.1482 112.57 73.9311 112.968 73.5459C113.367 73.1607 113.602 72.6369 113.625 72.0831L113.632 71.8831L113.092 70.6101L103.936 64.4911L121.163 51.4501V79.5201H69.023Z" fill="#B2DD62"/>
  <path d="M122 65C131.389 65 139 57.3888 139 48C139 38.6112 131.389 31 122 31C112.611 31 105 38.6112 105 48C105 57.3888 112.611 65 122 65Z" fill="#F5F5F5"/>
  <path d="M122 63.5C130.56 63.5 137.5 56.5604 137.5 48C137.5 39.4396 130.56 32.5 122 32.5C113.44 32.5 106.5 39.4396 106.5 48C106.5 56.5604 113.44 63.5 122 63.5Z" stroke="#F5F5F5" stroke-width="3"/>
  <path d="M122 61C129.18 61 135 55.1797 135 48C135 40.8203 129.18 35 122 35C114.82 35 109 40.8203 109 48C109 55.1797 114.82 61 122 61Z" fill="#F5F5F5"/>
  <path d="M122 59.5C128.351 59.5 133.5 54.3513 133.5 48C133.5 41.6487 128.351 36.5 122 36.5C115.649 36.5 110.5 41.6487 110.5 48C110.5 54.3513 115.649 59.5 122 59.5Z" stroke="#B2DD62" stroke-width="3"/>
  <path d="M117 48.499L119.684 51.375" stroke="#B2DD62" stroke-width="3" stroke-linecap="round"/>
  <path d="M127.115 44.175L119.968 51.599" stroke="#B2DD62" stroke-width="3" stroke-linecap="round"/>
</svg>