<svg xmlns="http://www.w3.org/2000/svg" width="136" height="44" viewBox="0 0 136 44">
  <g id="App_Store" data-name="App Store" transform="translate(0.5 0.501)">
    <g id="Groupe_784" data-name="Groupe 784" transform="translate(0)">
      <g id="Groupe_780" data-name="Groupe 780">
        <g id="Groupe_779" data-name="Groupe 779">
          <g id="Groupe_778" data-name="Groupe 778">
            <path id="Soustraction_1" data-name="Soustraction 1" d="M124.833,43H10.175c-.392,0-.778,0-1.168,0-.312,0-.633,0-.981-.012a14.2,14.2,0,0,1-2.138-.19,7.17,7.17,0,0,1-2.029-.677,6.724,6.724,0,0,1-1.727-1.268A6.693,6.693,0,0,1,.874,39.116a7.135,7.135,0,0,1-.667-2.048,14.289,14.289,0,0,1-.19-2.152C.01,34.7.007,34.492,0,34.26c0-.112,0-.223,0-.334V9.078C0,9,0,8.928,0,8.853V8.726c0-.209.005-.426.011-.638a14.407,14.407,0,0,1,.19-2.153A7.164,7.164,0,0,1,.874,3.89,6.752,6.752,0,0,1,2.132,2.147,6.888,6.888,0,0,1,3.859.879,7.152,7.152,0,0,1,5.888.205,13.736,13.736,0,0,1,8.026.016l.2,0h.024c.248,0,.5-.008.756-.01.39,0,.776,0,1.168,0H124.833c.383,0,.773,0,1.156,0,.263,0,.534.006.811.011l.173,0a13.594,13.594,0,0,1,2.134.189,7.254,7.254,0,0,1,2.036.674,6.852,6.852,0,0,1,1.725,1.268A6.943,6.943,0,0,1,134.13,3.89a7.124,7.124,0,0,1,.661,2.045,14.674,14.674,0,0,1,.2,2.153c.005.33.005.666.005.99.006.389.006.788.006,1.173v22.5c0,.4,0,.784-.006,1.175,0,.338,0,.657-.005.99a14.637,14.637,0,0,1-.2,2.152,7.1,7.1,0,0,1-.661,2.048,6.874,6.874,0,0,1-1.261,1.735,6.69,6.69,0,0,1-1.725,1.268,7.268,7.268,0,0,1-2.036.677,14.091,14.091,0,0,1-2.134.19c-.333.008-.665.012-.984.012C125.606,43,125.216,43,124.833,43ZM9.012.94,8.05.954a13.289,13.289,0,0,0-2,.177,6.175,6.175,0,0,0-1.764.584,5.981,5.981,0,0,0-1.5,1.1A5.74,5.74,0,0,0,1.7,4.317,6.184,6.184,0,0,0,1.123,6.1,13.462,13.462,0,0,0,.948,8.116c-.007.222-.016.957-.016.961V33.91c0,.005.009.753.016.982a13.5,13.5,0,0,0,.177,2.016,6.2,6.2,0,0,0,.58,1.78,5.969,5.969,0,0,0,2.579,2.594,6.227,6.227,0,0,0,1.768.589,13.269,13.269,0,0,0,2,.176c.352.008.667.012.965.012l115.821,0,1.156,0c.3,0,.626,0,.958-.012a13.126,13.126,0,0,0,1.995-.176,6.185,6.185,0,0,0,1.779-.591,5.782,5.782,0,0,0,1.493-1.1,5.925,5.925,0,0,0,1.085-1.491,6.292,6.292,0,0,0,.576-1.795,13.8,13.8,0,0,0,.183-1.992c0-.33,0-.655,0-1,.008-.383.008-.758.008-1.155v-22.5c0-.378,0-.77-.008-1.173,0-.321,0-.653,0-.957a14.233,14.233,0,0,0-.186-2.029A6.271,6.271,0,0,0,133.3,4.32a6,6,0,0,0-1.093-1.51,5.917,5.917,0,0,0-1.484-1.091,6.291,6.291,0,0,0-1.783-.589,13.145,13.145,0,0,0-1.984-.175L125.984.94Z" transform="translate(0 -0.001)" fill="#fff" stroke="rgba(0,0,0,0)" stroke-miterlimit="10" stroke-width="1"/>
          </g>
        </g>
      </g>
      <g id="Groupe_783" data-name="Groupe 783" transform="translate(10.254 8.373)">
        <g id="Groupe_782" data-name="Groupe 782">
          <g id="Groupe_781" data-name="Groupe 781">
            <path id="Tracé_773" data-name="Tracé 773" d="M26.029,20.33a5.492,5.492,0,0,1,2.614-4.607,5.62,5.62,0,0,0-4.428-2.395c-1.863-.2-3.67,1.115-4.619,1.115-.968,0-2.43-1.1-4-1.064a5.9,5.9,0,0,0-4.963,3.027c-2.146,3.716-.545,9.177,1.511,12.18,1.028,1.47,2.23,3.114,3.8,3.055,1.539-.064,2.114-.982,3.972-.982,1.841,0,2.381.982,3.984.945,1.652-.028,2.692-1.478,3.685-2.962a12.125,12.125,0,0,0,1.685-3.432A5.305,5.305,0,0,1,26.029,20.33Z" transform="translate(-9.609 -7.481)" fill="#fff"/>
            <path id="Tracé_774" data-name="Tracé 774" d="M22.384,11.72A5.406,5.406,0,0,0,23.62,7.847a5.5,5.5,0,0,0-3.559,1.842,5.141,5.141,0,0,0-1.27,3.729A4.547,4.547,0,0,0,22.384,11.72Z" transform="translate(-8.995 -7.847)" fill="#fff"/>
          </g>
        </g>
      </g>
    </g>
    <g id="Groupe_786" data-name="Groupe 786" transform="translate(36.008 8.561)">
      <g id="Groupe_785" data-name="Groupe 785">
        <path id="Tracé_775" data-name="Tracé 775" d="M35.748,15.1V9.635h-2v-.9h4.99v.9h-2V15.1Z" transform="translate(-33.745 -7.975)" fill="#fff"/>
        <path id="Tracé_776" data-name="Tracé 776" d="M43,13.852a1.951,1.951,0,0,1-2.082,1.39,2.183,2.183,0,0,1-2.22-2.481,2.215,2.215,0,0,1,2.215-2.51c1.337,0,2.144.913,2.144,2.422v.331H39.666v.053a1.27,1.27,0,0,0,1.279,1.377,1.155,1.155,0,0,0,1.144-.583ZM39.666,12.3h2.427a1.159,1.159,0,0,0-1.182-1.245A1.23,1.23,0,0,0,39.666,12.3Zm.68-2.763,1.108-1.518h1.112l-1.24,1.518Z" transform="translate(-33.413 -8.023)" fill="#fff"/>
        <path id="Tracé_777" data-name="Tracé 777" d="M44.019,8.441h.949v6.681h-.949Z" transform="translate(-33.056 -7.995)" fill="#fff"/>
        <path id="Tracé_778" data-name="Tracé 778" d="M50.444,13.852a1.951,1.951,0,0,1-2.082,1.39,2.183,2.183,0,0,1-2.22-2.481,2.216,2.216,0,0,1,2.215-2.51c1.337,0,2.144.913,2.144,2.422v.331H47.109v.053a1.271,1.271,0,0,0,1.28,1.377,1.152,1.152,0,0,0,1.143-.583ZM47.109,12.3h2.428a1.16,1.16,0,0,0-1.183-1.245A1.23,1.23,0,0,0,47.109,12.3Zm.68-2.763L48.9,8.023h1.112l-1.24,1.518Z" transform="translate(-32.913 -8.023)" fill="#fff"/>
        <path id="Tracé_779" data-name="Tracé 779" d="M54.583,11.775a1.073,1.073,0,0,0-1.135-.815c-.794,0-1.279.608-1.279,1.633,0,1.041.49,1.664,1.279,1.664a1.046,1.046,0,0,0,1.135-.791H55.5A1.881,1.881,0,0,1,53.453,15.1,2.207,2.207,0,0,1,51.2,12.592a2.191,2.191,0,0,1,2.249-2.48A1.9,1.9,0,0,1,55.5,11.775Z" transform="translate(-32.574 -7.883)" fill="#fff"/>
        <path id="Tracé_780" data-name="Tracé 780" d="M56.414,8.441h.939v2.647h.076a1.478,1.478,0,0,1,1.465-.86,1.583,1.583,0,0,1,1.655,1.791v3.1H59.6V12.254c0-.768-.357-1.157-1.028-1.157a1.123,1.123,0,0,0-1.21,1.219v2.806h-.948Z" transform="translate(-32.224 -7.995)" fill="#fff"/>
        <path id="Tracé_781" data-name="Tracé 781" d="M61.406,13.65c0-.864.643-1.364,1.787-1.434l1.3-.075v-.415c0-.508-.335-.794-.984-.794-.529,0-.9.194-1,.534h-.918c.1-.825.873-1.354,1.962-1.354,1.2,0,1.884.6,1.884,1.614V15.01h-.912v-.675H64.45a1.614,1.614,0,0,1-1.443.754A1.452,1.452,0,0,1,61.406,13.65Zm3.088-.411v-.4l-1.173.075c-.662.045-.962.27-.962.694s.376.684.891.684A1.133,1.133,0,0,0,64.494,13.24Z" transform="translate(-31.89 -7.883)" fill="#fff"/>
        <path id="Tracé_782" data-name="Tracé 782" d="M66.577,10.2h.912v.736h.072a1.3,1.3,0,0,1,1.3-.816,1.993,1.993,0,0,1,.424.039V11.1a2.586,2.586,0,0,0-.529-.058,1.126,1.126,0,0,0-1.227,1.13v2.837h-.948Z" transform="translate(-31.543 -7.882)" fill="#fff"/>
        <path id="Tracé_783" data-name="Tracé 783" d="M69.94,15.489h.97c.081.349.482.574,1.121.574.79,0,1.258-.376,1.258-1.011v-.922h-.07a1.617,1.617,0,0,1-1.483.807c-1.227,0-1.985-.948-1.985-2.387,0-1.465.766-2.427,1.994-2.427a1.665,1.665,0,0,1,1.509.847h.075V10.2h.909v4.845c0,1.1-.861,1.8-2.22,1.8C70.818,16.844,70.041,16.306,69.94,15.489Zm3.368-2.943c0-.957-.5-1.571-1.3-1.571s-1.275.614-1.275,1.571.459,1.571,1.275,1.571S73.308,13.509,73.308,12.546Z" transform="translate(-31.33 -7.882)" fill="#fff"/>
        <path id="Tracé_784" data-name="Tracé 784" d="M79.449,13.712a1.951,1.951,0,0,1-2.082,1.39,2.183,2.183,0,0,1-2.22-2.481,2.216,2.216,0,0,1,2.215-2.51c1.337,0,2.144.913,2.144,2.422v.331H76.114v.053a1.271,1.271,0,0,0,1.279,1.377,1.153,1.153,0,0,0,1.144-.583Zm-3.336-1.548h2.428a1.161,1.161,0,0,0-1.183-1.245A1.23,1.23,0,0,0,76.114,12.164Z" transform="translate(-30.968 -7.883)" fill="#fff"/>
        <path id="Tracé_785" data-name="Tracé 785" d="M80.426,10.2h.913v.736h.07a1.3,1.3,0,0,1,1.3-.816,1.976,1.976,0,0,1,.423.039V11.1a2.577,2.577,0,0,0-.529-.058,1.126,1.126,0,0,0-1.226,1.13v2.837h-.949Z" transform="translate(-30.614 -7.882)" fill="#fff"/>
        <path id="Tracé_786" data-name="Tracé 786" d="M86.163,12.717c0-1.518.78-2.48,1.994-2.48a1.584,1.584,0,0,1,1.474.843h.07V8.441h.949v6.681h-.909v-.76h-.075a1.669,1.669,0,0,1-1.509.839C86.935,15.2,86.163,14.239,86.163,12.717Zm.98,0c0,1.019.48,1.633,1.284,1.633s1.293-.622,1.293-1.628-.5-1.633-1.293-1.633S87.143,11.706,87.143,12.717Z" transform="translate(-30.229 -7.995)" fill="#fff"/>
        <path id="Tracé_787" data-name="Tracé 787" d="M91.569,13.65c0-.864.643-1.364,1.787-1.434l1.3-.075v-.415c0-.508-.335-.794-.983-.794-.53,0-.9.194-1,.534h-.918c.1-.825.873-1.354,1.963-1.354,1.2,0,1.883.6,1.883,1.614V15.01h-.912v-.675h-.076a1.614,1.614,0,0,1-1.443.754A1.452,1.452,0,0,1,91.569,13.65Zm3.088-.411v-.4l-1.173.075c-.662.045-.963.27-.963.694s.376.684.891.684A1.133,1.133,0,0,0,94.657,13.24Z" transform="translate(-29.866 -7.883)" fill="#fff"/>
        <path id="Tracé_788" data-name="Tracé 788" d="M96.74,10.2h.912v.763h.071a1.438,1.438,0,0,1,1.433-.856A1.563,1.563,0,0,1,100.82,11.9V15.01h-.949V12.137c0-.773-.335-1.157-1.036-1.157A1.1,1.1,0,0,0,97.688,12.2V15.01H96.74Z" transform="translate(-29.52 -7.883)" fill="#fff"/>
        <path id="Tracé_789" data-name="Tracé 789" d="M103.709,10.112c1.081,0,1.787.5,1.88,1.35h-.909c-.088-.353-.433-.578-.971-.578s-.932.252-.932.626c0,.287.243.468.764.588l.8.185c.914.212,1.342.605,1.342,1.311,0,.9-.843,1.509-1.99,1.509s-1.889-.516-1.973-1.368h.95a.974.974,0,0,0,1.045.6c.591,0,1.012-.265,1.012-.649,0-.287-.225-.472-.706-.587l-.839-.194c-.913-.217-1.337-.626-1.337-1.341C101.843,10.712,102.624,10.112,103.709,10.112Z" transform="translate(-29.186 -7.883)" fill="#fff"/>
      </g>
    </g>
    <g id="Groupe_787" data-name="Groupe 787" transform="translate(37.552 19.07)">
      <path id="Tracé_790" data-name="Tracé 790" d="M35.192,18.078h1.985V31.329H35.192Z" transform="translate(-35.192 -17.857)" fill="#fff"/>
      <path id="Tracé_791" data-name="Tracé 791" d="M39.292,22.927l1.084-4.849H42.3l-1.312,4.849Z" transform="translate(-34.917 -17.857)" fill="#fff"/>
      <path id="Tracé_792" data-name="Tracé 792" d="M49.668,27.748H44.617L43.4,31.329H41.265l4.784-13.251h2.223l4.784,13.251H50.879Zm-4.528-1.653h4L47.17,20.283h-.055Z" transform="translate(-34.785 -17.857)" fill="#fff"/>
      <path id="Tracé_793" data-name="Tracé 793" d="M62.569,26.28c0,3-1.607,4.931-4.031,4.931a3.275,3.275,0,0,1-3.04-1.69h-.046v4.785H53.469V21.448h1.92v1.607h.036A3.427,3.427,0,0,1,58.5,21.348C60.952,21.348,62.569,23.286,62.569,26.28Zm-2.038,0c0-1.956-1.011-3.242-2.554-3.242-1.515,0-2.534,1.313-2.534,3.242,0,1.946,1.019,3.25,2.534,3.25C59.52,29.53,60.531,28.253,60.531,26.28Z" transform="translate(-33.966 -17.638)" fill="#fff"/>
      <path id="Tracé_794" data-name="Tracé 794" d="M72.534,26.28c0,3-1.606,4.931-4.031,4.931a3.276,3.276,0,0,1-3.04-1.69h-.045v4.785H63.434V21.448h1.92v1.607h.036a3.428,3.428,0,0,1,3.076-1.707C70.918,21.348,72.534,23.286,72.534,26.28Zm-2.038,0c0-1.956-1.011-3.242-2.552-3.242-1.515,0-2.534,1.313-2.534,3.242,0,1.946,1.019,3.25,2.534,3.25C69.485,29.53,70.5,28.253,70.5,26.28Z" transform="translate(-33.298 -17.638)" fill="#fff"/>
      <path id="Tracé_795" data-name="Tracé 795" d="M78.676,27.651c.147,1.315,1.423,2.177,3.168,2.177,1.672,0,2.874-.862,2.874-2.048,0-1.029-.725-1.644-2.443-2.066L80.558,25.3c-2.433-.588-3.563-1.725-3.563-3.573,0-2.286,1.992-3.856,4.822-3.856,2.8,0,4.72,1.571,4.784,3.856h-2c-.12-1.322-1.213-2.12-2.811-2.12s-2.69.808-2.69,1.983c0,.937.7,1.489,2.406,1.91l1.46.359c2.719.643,3.848,1.735,3.848,3.674,0,2.479-1.974,4.031-5.116,4.031-2.938,0-4.922-1.516-5.05-3.913Z" transform="translate(-32.412 -17.871)" fill="#fff"/>
      <path id="Tracé_796" data-name="Tracé 796" d="M90.4,19.3v2.286h1.838v1.571H90.4v5.326c0,.828.368,1.213,1.176,1.213a6.084,6.084,0,0,0,.652-.046v1.561a5.424,5.424,0,0,1-1.1.092c-1.956,0-2.719-.735-2.719-2.608V23.156H87V21.586h1.4V19.3Z" transform="translate(-31.717 -17.775)" fill="#fff"/>
      <path id="Tracé_797" data-name="Tracé 797" d="M92.9,26.281c0-3.04,1.791-4.95,4.582-4.95s4.583,1.91,4.583,4.95-1.772,4.949-4.583,4.949S92.9,29.329,92.9,26.281Zm7.144,0c0-2.085-.955-3.316-2.562-3.316s-2.563,1.24-2.563,3.316c0,2.094.956,3.314,2.563,3.314S100.046,28.375,100.046,26.281Z" transform="translate(-31.321 -17.639)" fill="#fff"/>
      <path id="Tracé_798" data-name="Tracé 798" d="M103.023,21.448h1.891v1.644h.046a2.305,2.305,0,0,1,2.324-1.745,3.078,3.078,0,0,1,.68.074v1.855a2.8,2.8,0,0,0-.891-.12,2,2,0,0,0-2.067,2.223v5.73h-1.983Z" transform="translate(-30.642 -17.638)" fill="#fff"/>
      <path id="Tracé_799" data-name="Tracé 799" d="M116.769,28.273c-.267,1.753-1.974,2.957-4.159,2.957-2.811,0-4.555-1.882-4.555-4.9s1.754-5,4.472-5c2.673,0,4.354,1.836,4.354,4.766v.68h-6.824v.12a2.516,2.516,0,0,0,2.6,2.736,2.186,2.186,0,0,0,2.231-1.358Zm-6.7-2.883h4.83a2.323,2.323,0,0,0-2.369-2.452A2.446,2.446,0,0,0,110.065,25.39Z" transform="translate(-30.305 -17.639)" fill="#fff"/>
    </g>
  </g>
</svg>
