<svg xmlns="http://www.w3.org/2000/svg" width="30" height="30" viewBox="0 0 30 30">
  <g id="Linkedin" transform="translate(-30.804 -70.53)">
    <rect id="Bg" width="30" height="30" rx="4" transform="translate(60.804 70.53) rotate(90)" fill="#1d2b47"/>
    <g id="Groupe_29" data-name="Groupe 29" transform="translate(37.804 77.53)">
      <path id="Tracé_6" data-name="Tracé 6" d="M35.84,80.463h3.227V91.152H35.84Zm1.615-5.311a1.928,1.928,0,1,1-1.872,1.927,1.9,1.9,0,0,1,1.872-1.927" transform="translate(-35.583 -75.152)" fill="#fff"/>
      <path id="Tracé_7" data-name="Tracé 7" d="M37.383,77.009h3.093v1.419h.043a3.385,3.385,0,0,1,3.05-1.676c3.264,0,3.864,2.148,3.864,4.941v5.684H44.214V82.338c0-1.205-.024-2.75-1.676-2.75-1.676,0-1.933,1.309-1.933,2.661v5.127H37.383Z" transform="translate(-31.432 -71.376)" fill="#fff"/>
    </g>
  </g>
</svg>
