<svg xmlns="http://www.w3.org/2000/svg" width="30" height="30" viewBox="0 0 30 30">
  <g id="Facebook" transform="translate(-25.95 -24.71)">
    <rect id="Bg" width="30" height="30" rx="4" transform="translate(55.95 24.71) rotate(90)" fill="#1d2b47"/>
    <path id="Tracé_10" data-name="Tracé 10" d="M44.113,31.841c.558-.019,1.116,0,1.675-.006h.231v-2.9c-.3-.031-.608-.072-.923-.087-.571-.025-1.144-.053-1.715-.041a4.216,4.216,0,0,0-2.426.748A3.643,3.643,0,0,0,39.5,31.979a8.3,8.3,0,0,0-.1,1.244c-.016.652,0,1.3,0,1.952v.246H36.619v3.24h2.76V46.8H42.75v-8.13H45.5c.14-1.079.278-2.146.421-3.256h-.617c-.783,0-2.579,0-2.579,0s.009-1.606.028-2.3C42.781,32.159,43.349,31.869,44.113,31.841Z" transform="translate(0.063 1.906)" fill="#fff" fill-rule="evenodd"/>
  </g>
</svg>
