<svg xmlns="http://www.w3.org/2000/svg" width="30" height="30" viewBox="0 0 30 30">
  <g id="Youtube" transform="translate(-30.804 -70.53)">
    <rect id="Bg" width="30" height="30" rx="4" transform="translate(60.804 70.53) rotate(90)" fill="#1d2b47"/>
    <path id="Tracé_800" data-name="Tracé 800" d="M68.443,81.409a2.469,2.469,0,0,0-1.754-1.754c-1.569-.432-7.832-.432-7.832-.432s-6.251,0-7.82.408a2.584,2.584,0,0,0-1.767,1.779,28.6,28.6,0,0,0,0,9.623A2.545,2.545,0,0,0,51.037,92.8c1.581.42,7.82.42,7.82.42s6.263,0,7.832-.408a2.486,2.486,0,0,0,1.754-1.766,25.807,25.807,0,0,0,.42-4.805A25.01,25.01,0,0,0,68.443,81.409ZM56.868,89.217V83.225l5.2,3Z" transform="translate(-13.059 -0.693)" fill="#fff"/>
  </g>
</svg>
