<svg xmlns="http://www.w3.org/2000/svg" width="30" height="30" viewBox="0 0 30 30">
  <g id="Twitter" transform="translate(-25.95 -24.71)">
    <rect id="Bg" width="30" height="30" rx="4" transform="translate(55.95 24.71) rotate(90)" fill="#1d2b47"/>
    <path id="Tracé_13" data-name="Tracé 13" d="M40.912,63.779a3.689,3.689,0,0,1-3.44-2.521,3.714,3.714,0,0,0,1.586-.046l.05-.023a3.69,3.69,0,0,1-2.4-1.668,3.475,3.475,0,0,1-.542-1.936,3.682,3.682,0,0,0,1.646.443,3.654,3.654,0,0,1-1.525-2.2,3.555,3.555,0,0,1,.4-2.634,10.648,10.648,0,0,0,7.628,3.8c-.02-.142-.044-.268-.057-.394a3.487,3.487,0,0,1,.539-2.379A3.565,3.565,0,0,1,47.3,52.568a3.646,3.646,0,0,1,3.238,1.016.193.193,0,0,0,.2.056,7.443,7.443,0,0,0,2.151-.814l.047-.023.027,0a3.73,3.73,0,0,1-1.586,1.979,7.151,7.151,0,0,0,2.06-.546l.013.017c-.141.185-.276.371-.424.546a7.169,7.169,0,0,1-1.343,1.257.114.114,0,0,0-.061.113,9.959,9.959,0,0,1-.071,1.615A10.7,10.7,0,0,1,48.6,63.885a9.939,9.939,0,0,1-5.083,2.783,11.3,11.3,0,0,1-2.06.242,10.6,10.6,0,0,1-5.918-1.562l-.088-.056a7.592,7.592,0,0,0,3.7-.5A7.174,7.174,0,0,0,40.912,63.779Z" transform="translate(-3.502 -19.804)" fill="#fff" fill-rule="evenodd"/>
  </g>
</svg>
